# xmcd
#
# Track frame offsets: 
#        150
#        19897
#        38500
#        56812
#        72090
#        92357
#        111172
#        128295
#        148210
#        171475
#        195045
#
# Disc length: 2841 seconds
#
# Revision: 6
# Processed by: cddbd v1.5.2PL0 Copyright (c) Steve Scherf et al.
# Submitted via: ExactAudioCopyFreeDBPlugin 1.0
#
DISCID=8b0b170b
DTITLE=Washington, Walter 'Wolfman' - Sada
DYEAR=1991
DGENRE=Blues
TTITLE0=I'll Be Good
TTITLE1=Skin Tight
TTITLE2=Ain't No Love In The Heart Of The City
TTITLE3=Girl I Wanna Dance With You
TTITLE4=Share Your Love
TTITLE5=Chokin' Kind
TTITLE6=Southern Comfort
TTITLE7=I Got A Woman
TTITLE8=Sada
TTITLE9=Nothing Left To Be Desired
TTITLE10=What's It Gonna Take
EXTD=YEAR: 1991
EXTT0=
EXTT1=
EXTT2=
EXTT3=
EXTT4=
EXTT5=
EXTT6=
EXTT7=
EXTT8=
EXTT9=
EXTT10=
PLAYORDER=
